<svg xmlns="http://www.w3.org/2000/svg" xmlns:xlink="http://www.w3.org/1999/xlink" viewBox="0 0 360 460">
  <defs>
    <style>
      .cls-1 {
        clip-path: url(#clip-doc_attachment_1);
      }

      .cls-2 {
        fill: #5b5b5b;
      }
    </style>
    <clipPath id="clip-doc_attachment_1">
      <rect width="360" height="460"/>
    </clipPath>
  </defs>
  <g id="doc_attachment_1" data-name="doc_attachment – 1" class="cls-1">
    <g id="_005-file-4" data-name="005-file-4" transform="translate(7.086)">
      <path id="Path_48" data-name="Path 48" class="cls-2" d="M343.855,460H1.955A8.553,8.553,0,0,1-6.6,451.45L-6.086,8.556A8.558,8.558,0,0,1,2.466,0H267.435a8.554,8.554,0,0,1,6.048,2.506l76.928,77a8.579,8.579,0,0,1,2.5,6.05l-.511,365.9A8.552,8.552,0,0,1,343.855,460ZM10.5,442.89H335.31l.511-353.8L263.9,17.11H11.011Zm0,0" transform="translate(-0.489)"/>
      <path id="Path_49" data-name="Path 49" class="cls-2" d="M410.057,94.02h-76.93a8.546,8.546,0,0,1-8.545-8.545V8.549A8.548,8.548,0,0,1,339.175,2.5L416.1,79.431a8.546,8.546,0,0,1-6.044,14.59ZM341.679,76.927h47.744L341.679,29.179Zm0,0" transform="translate(-65.691 0)"/>
      <g id="word" transform="translate(78.914 125.99)">
        <g id="Group_51" data-name="Group 51" transform="translate(0 16.01)">
          <g id="Group_50" data-name="Group 50">
            <path id="Path_697" data-name="Path 697" class="cls-2" d="M103.766,17.356a5.922,5.922,0,0,0-4.836-1.247L4.8,33.758A5.866,5.866,0,0,0,0,39.535V168.963a5.876,5.876,0,0,0,4.8,5.777L98.93,192.39a5.626,5.626,0,0,0,1.082.106,5.884,5.884,0,0,0,5.883-5.883V21.886A5.868,5.868,0,0,0,103.766,17.356ZM94.13,179.518,11.766,164.08V44.418L94.13,28.981Z" transform="translate(0 -16.01)"/>
          </g>
        </g>
        <g id="Group_53" data-name="Group 53" transform="translate(94.13 39.535)">
          <g id="Group_52" data-name="Group 52">
            <path id="Path_698" data-name="Path 698" class="cls-2" d="M344.247,79.99H261.883a5.883,5.883,0,1,0,0,11.766h76.48v105.9h-76.48a5.883,5.883,0,1,0,0,11.766h82.363a5.885,5.885,0,0,0,5.883-5.883V85.873A5.885,5.885,0,0,0,344.247,79.99Z" transform="translate(-256 -79.99)"/>
          </g>
        </g>
        <g id="Group_55" data-name="Group 55" transform="translate(94.13 63.067)">
          <g id="Group_54" data-name="Group 54">
            <path id="Path_699" data-name="Path 699" class="cls-2" d="M320.714,143.99H261.883a5.883,5.883,0,1,0,0,11.766h58.831a5.883,5.883,0,1,0,0-11.766Z" transform="translate(-256 -143.99)"/>
          </g>
        </g>
        <g id="Group_57" data-name="Group 57" transform="translate(94.13 86.6)">
          <g id="Group_56" data-name="Group 56">
            <path id="Path_700" data-name="Path 700" class="cls-2" d="M320.714,207.99H261.883a5.883,5.883,0,1,0,0,11.766h58.831a5.883,5.883,0,1,0,0-11.766Z" transform="translate(-256 -207.99)"/>
          </g>
        </g>
        <g id="Group_59" data-name="Group 59" transform="translate(94.13 110.132)">
          <g id="Group_58" data-name="Group 58">
            <path id="Path_701" data-name="Path 701" class="cls-2" d="M320.714,271.99H261.883a5.883,5.883,0,1,0,0,11.766h58.831a5.883,5.883,0,1,0,0-11.766Z" transform="translate(-256 -271.99)"/>
          </g>
        </g>
        <g id="Group_61" data-name="Group 61" transform="translate(94.13 133.665)">
          <g id="Group_60" data-name="Group 60">
            <path id="Path_702" data-name="Path 702" class="cls-2" d="M320.714,335.99H261.883a5.883,5.883,0,1,0,0,11.766h58.831a5.883,5.883,0,1,0,0-11.766Z" transform="translate(-256 -335.99)"/>
          </g>
        </g>
        <g id="Group_63" data-name="Group 63" transform="translate(23.532 74.839)">
          <g id="Group_62" data-name="Group 62">
            <path id="Path_703" data-name="Path 703" class="cls-2" d="M117.594,176.035a5.97,5.97,0,0,0-6.495,5.189l-3.165,28.5L98.921,185.7c-1.73-4.589-9.307-4.589-11.025,0L78.33,211.216l-2.624-18.4a5.883,5.883,0,0,0-11.649,1.659l5.883,41.182A5.883,5.883,0,0,0,81.271,236.9l12.143-32.381L105.557,236.9a5.9,5.9,0,0,0,5.507,3.812,3.813,3.813,0,0,0,.729-.059,5.886,5.886,0,0,0,5.118-5.177l5.883-52.948A5.89,5.89,0,0,0,117.594,176.035Z" transform="translate(-63.998 -176.006)"/>
          </g>
        </g>
      </g>
    </g>
  </g>
</svg>
