<svg xmlns="http://www.w3.org/2000/svg" xmlns:xlink="http://www.w3.org/1999/xlink" viewBox="0 0 360 460">
  <defs>
    <style>
      .cls-1 {
        clip-path: url(#clip-sheet_attachment_2);
      }

      .cls-2 {
        fill: #5b5b5b;
      }
    </style>
    <clipPath id="clip-sheet_attachment_2">
      <rect width="360" height="460"/>
    </clipPath>
  </defs>
  <g id="sheet_attachment_2" data-name="sheet_attachment – 2" class="cls-1">
    <g id="_005-file-4" data-name="005-file-4" transform="translate(7.086)">
      <path id="Path_48" data-name="Path 48" class="cls-2" d="M343.855,460H1.955A8.553,8.553,0,0,1-6.6,451.45L-6.086,8.556A8.558,8.558,0,0,1,2.466,0H267.435a8.554,8.554,0,0,1,6.048,2.506l76.928,77a8.579,8.579,0,0,1,2.5,6.05l-.511,365.9A8.552,8.552,0,0,1,343.855,460ZM10.5,442.89H335.31l.511-353.8L263.9,17.11H11.011Zm0,0" transform="translate(-0.489)"/>
      <path id="Path_49" data-name="Path 49" class="cls-2" d="M410.057,94.02h-76.93a8.546,8.546,0,0,1-8.545-8.545V8.549A8.548,8.548,0,0,1,339.175,2.5L416.1,79.431a8.546,8.546,0,0,1-6.044,14.59ZM341.679,76.927h47.744L341.679,29.179Zm0,0" transform="translate(-65.691 0)"/>
      <g id="excel" transform="translate(87.914 133.99)">
        <g id="Group_13" data-name="Group 13" transform="translate(0 16.01)">
          <g id="Group_12" data-name="Group 12">
            <path id="Path_678" data-name="Path 678" class="cls-2" d="M93.719,17.225A5.348,5.348,0,0,0,89.351,16.1L4.336,32.039A5.3,5.3,0,0,0,0,37.257v116.9a5.307,5.307,0,0,0,4.336,5.218l85.015,15.94a5.081,5.081,0,0,0,.978.1,5.314,5.314,0,0,0,5.313-5.313V21.317A5.3,5.3,0,0,0,93.719,17.225Zm-8.7,146.46L10.627,149.743V41.667L85.015,27.725Z" transform="translate(0 -16.01)"/>
          </g>
        </g>
        <g id="Group_15" data-name="Group 15" transform="translate(85.015 37.257)">
          <g id="Group_14" data-name="Group 14">
            <path id="Path_679" data-name="Path 679" class="cls-2" d="M335.7,79.99H261.313a5.313,5.313,0,1,0,0,10.627h69.075v95.642H261.313a5.313,5.313,0,1,0,0,10.627H335.7a5.315,5.315,0,0,0,5.313-5.313V85.3A5.315,5.315,0,0,0,335.7,79.99Z" transform="translate(-256 -79.99)"/>
          </g>
        </g>
        <g id="Group_17" data-name="Group 17" transform="translate(85.015 58.511)">
          <g id="Group_16" data-name="Group 16">
            <path id="Path_680" data-name="Path 680" class="cls-2" d="M282.567,143.99H261.313a5.313,5.313,0,1,0,0,10.627h21.254a5.313,5.313,0,0,0,0-10.627Z" transform="translate(-256 -143.99)"/>
          </g>
        </g>
        <g id="Group_19" data-name="Group 19" transform="translate(85.015 79.765)">
          <g id="Group_18" data-name="Group 18">
            <path id="Path_681" data-name="Path 681" class="cls-2" d="M282.567,207.99H261.313a5.313,5.313,0,1,0,0,10.627h21.254a5.313,5.313,0,0,0,0-10.627Z" transform="translate(-256 -207.99)"/>
          </g>
        </g>
        <g id="Group_21" data-name="Group 21" transform="translate(85.015 101.019)">
          <g id="Group_20" data-name="Group 20">
            <path id="Path_682" data-name="Path 682" class="cls-2" d="M282.567,271.99H261.313a5.313,5.313,0,1,0,0,10.627h21.254a5.313,5.313,0,0,0,0-10.627Z" transform="translate(-256 -271.99)"/>
          </g>
        </g>
        <g id="Group_23" data-name="Group 23" transform="translate(85.015 122.272)">
          <g id="Group_22" data-name="Group 22">
            <path id="Path_683" data-name="Path 683" class="cls-2" d="M282.567,335.99H261.313a5.313,5.313,0,1,0,0,10.627h21.254a5.313,5.313,0,0,0,0-10.627Z" transform="translate(-256 -335.99)"/>
          </g>
        </g>
        <g id="Group_25" data-name="Group 25" transform="translate(127.523 58.511)">
          <g id="Group_24" data-name="Group 24">
            <path id="Path_684" data-name="Path 684" class="cls-2" d="M399.94,143.99H389.313a5.313,5.313,0,0,0,0,10.627H399.94a5.313,5.313,0,1,0,0-10.627Z" transform="translate(-384 -143.99)"/>
          </g>
        </g>
        <g id="Group_27" data-name="Group 27" transform="translate(127.523 79.765)">
          <g id="Group_26" data-name="Group 26">
            <path id="Path_685" data-name="Path 685" class="cls-2" d="M399.94,207.99H389.313a5.313,5.313,0,0,0,0,10.627H399.94a5.313,5.313,0,1,0,0-10.627Z" transform="translate(-384 -207.99)"/>
          </g>
        </g>
        <g id="Group_29" data-name="Group 29" transform="translate(127.523 101.019)">
          <g id="Group_28" data-name="Group 28">
            <path id="Path_686" data-name="Path 686" class="cls-2" d="M399.94,271.99H389.313a5.313,5.313,0,0,0,0,10.627H399.94a5.313,5.313,0,1,0,0-10.627Z" transform="translate(-384 -271.99)"/>
          </g>
        </g>
        <g id="Group_31" data-name="Group 31" transform="translate(127.523 122.272)">
          <g id="Group_30" data-name="Group 30">
            <path id="Path_687" data-name="Path 687" class="cls-2" d="M399.94,335.99H389.313a5.313,5.313,0,0,0,0,10.627H399.94a5.313,5.313,0,1,0,0-10.627Z" transform="translate(-384 -335.99)"/>
          </g>
        </g>
        <g id="Group_33" data-name="Group 33" transform="translate(26.569 69.136)">
          <g id="Group_32" data-name="Group 32">
            <path id="Path_688" data-name="Path 688" class="cls-2" d="M126.517,220.311,89.323,177.8a5.313,5.313,0,0,0-8,6.992L118.515,227.3a5.313,5.313,0,0,0,8-6.992Z" transform="translate(-80.004 -175.984)"/>
          </g>
        </g>
        <g id="Group_35" data-name="Group 35" transform="translate(26.567 63.825)">
          <g id="Group_34" data-name="Group 34">
            <path id="Path_689" data-name="Path 689" class="cls-2" d="M125.77,161.118a5.313,5.313,0,0,0-7.46.925L81.115,209.863A5.315,5.315,0,0,0,89.5,216.4l37.194-47.821A5.31,5.31,0,0,0,125.77,161.118Z" transform="translate(-79.999 -159.992)"/>
          </g>
        </g>
      </g>
    </g>
  </g>
</svg>
