<svg xmlns="http://www.w3.org/2000/svg" xmlns:xlink="http://www.w3.org/1999/xlink" viewBox="0 0 360 460">
  <defs>
    <style>
      .cls-1 {
        clip-path: url(#clip-adobe_attachment);
      }

      .cls-2 {
        fill: #5b5b5b;
      }
    </style>
    <clipPath id="clip-adobe_attachment">
      <rect width="360" height="460"/>
    </clipPath>
  </defs>
  <g id="adobe_attachment" class="cls-1">
    <g id="_008-file-7" data-name="008-file-7" transform="translate(0.855 0.001)">
      <path id="Path_80" data-name="Path 80" class="cls-2" d="M349.636,460.039H7.659a8.5,8.5,0,0,1-8.514-8.5l.876-443A8.5,8.5,0,0,1,8.535.039H273.481a8.419,8.419,0,0,1,6.01,2.5l76.93,76.786a8.554,8.554,0,0,1,2.5,6l-.877,366.119A8.371,8.371,0,0,1,349.636,460.039ZM16.275,442.945H341.122L342,88.924,270.077,17.137H17.151Zm0,0" transform="translate(0 -0.04)"/>
      <path id="Path_81" data-name="Path 81" class="cls-2" d="M349.922,93.941h-76.8a8.494,8.494,0,0,1-8.5-8.5V8.539a8.6,8.6,0,0,1,5.3-7.9,8.455,8.455,0,0,1,9.3,1.9l76.8,76.8a8.649,8.649,0,0,1,1.9,9.3A8.958,8.958,0,0,1,349.922,93.941Zm-68.3-17.1h47.7l-47.7-47.7Zm0,0" transform="translate(0.605)"/>
      <path id="Path_87" data-name="Path 87" class="cls-2" d="M280.121,221.141c-3.3-6.3-11.4-9.4-24.7-9.4a167.492,167.492,0,0,0-28.6,3c-15.6-16.3-31.8-40.1-43.3-63.5,1.8-7.5,3.5-15.1,4.8-22.7,1.5-8.9,3.3-19.1,1.4-28.1a21.8,21.8,0,0,0-5.3-9.5c-2.1-2.3-5-5.5-8.4-5.5a44.141,44.141,0,0,0-8.6,1.4c-4.9,1.6-7.5,5.4-9.6,10.2-6,13.9,2.2,37.5,10.7,55.8a563.178,563.178,0,0,1-32.2,90.3c-32.2,14.6-49.3,28.9-50.9,42.6-.6,5,.6,12.3,9.5,18.8a13.65,13.65,0,0,0,8.2,2.7c7.4,0,15-5.6,23.7-17.7,6.3-8.8,13.2-20.8,20.3-35.7a414.434,414.434,0,0,1,75.1-23.7c13.4,12.7,25.5,19.2,35.8,19.2,7.6,0,14.1-3.5,18.9-10C281.82,232.539,282.922,226.441,280.121,221.141Zm-176.8,71.9c-4-3-3.7-5-3.7-5.8.5-4.7,7.9-13,26.1-23C112.02,289.34,104.621,292.641,103.32,293.039Zm69.8-192.5c.4-.1,8.9,9.2.8,27C161.82,115.34,172.219,100.84,173.121,100.539Zm-17.6,134.6a579.473,579.473,0,0,0,22.7-63.5,287.128,287.128,0,0,0,32.5,46.6A416.274,416.274,0,0,0,155.52,235.141Zm109.7-4c-2.6,3.6-8.3,3.7-10.3,3.7-4.5,0-6.2-2.7-13.2-7.9a128.3,128.3,0,0,1,15.4-.9c7.6,0,9,1.1,10,1.7A11.045,11.045,0,0,1,265.219,231.141Zm0,0" transform="translate(0.32 33.514)"/>
    </g>
  </g>
</svg>
