<svg xmlns="http://www.w3.org/2000/svg" xmlns:xlink="http://www.w3.org/1999/xlink" viewBox="0 0 360 460">
  <defs>
    <style>
      .cls-1 {
        clip-path: url(#clip-powerpoint_attachment_1);
      }

      .cls-2 {
        fill: #5b5b5b;
      }
    </style>
    <clipPath id="clip-powerpoint_attachment_1">
      <rect width="360" height="460"/>
    </clipPath>
  </defs>
  <g id="powerpoint_attachment_1" data-name="powerpoint_attachment – 1" class="cls-1">
    <g id="_005-file-4" data-name="005-file-4" transform="translate(7.086)">
      <path id="Path_48" data-name="Path 48" class="cls-2" d="M343.855,460H1.955A8.553,8.553,0,0,1-6.6,451.45L-6.086,8.556A8.558,8.558,0,0,1,2.466,0H267.435a8.554,8.554,0,0,1,6.048,2.506l76.928,77a8.579,8.579,0,0,1,2.5,6.05l-.511,365.9A8.552,8.552,0,0,1,343.855,460ZM10.5,442.89H335.31l.511-353.8L263.9,17.11H11.011Zm0,0" transform="translate(-0.489)"/>
      <path id="Path_49" data-name="Path 49" class="cls-2" d="M410.057,94.02h-76.93a8.546,8.546,0,0,1-8.545-8.545V8.549A8.548,8.548,0,0,1,339.175,2.5L416.1,79.431a8.546,8.546,0,0,1-6.044,14.59ZM341.679,76.927h47.744L341.679,29.179Zm0,0" transform="translate(-65.691 0)"/>
      <g id="powerpoint" transform="translate(87.914 133.99)">
        <g id="Group_37" data-name="Group 37" transform="translate(0 16.01)">
          <g id="Group_36" data-name="Group 36">
            <path id="Path_690" data-name="Path 690" class="cls-2" d="M93.8,17.226A5.353,5.353,0,0,0,89.433,16.1L4.34,32.054A5.3,5.3,0,0,0,0,37.277v117A5.312,5.312,0,0,0,4.34,159.5l85.093,15.955a5.085,5.085,0,0,0,.979.1,5.319,5.319,0,0,0,5.318-5.318V21.322A5.3,5.3,0,0,0,93.8,17.226ZM85.093,163.821,10.637,149.866V41.691L85.093,27.735Z" transform="translate(0 -16.01)"/>
          </g>
        </g>
        <g id="Group_39" data-name="Group 39" transform="translate(85.093 37.277)">
          <g id="Group_38" data-name="Group 38">
            <path id="Path_691" data-name="Path 691" class="cls-2" d="M335.775,79.99H261.318a5.318,5.318,0,0,0,0,10.637h69.138v95.73H261.318a5.318,5.318,0,0,0,0,10.637h74.457a5.32,5.32,0,0,0,5.318-5.318V85.308A5.32,5.32,0,0,0,335.775,79.99Z" transform="translate(-256 -79.99)"/>
          </g>
        </g>
        <g id="Group_41" data-name="Group 41" transform="translate(85.093 122.37)">
          <g id="Group_40" data-name="Group 40">
            <path id="Path_692" data-name="Path 692" class="cls-2" d="M314.5,335.99H261.318a5.318,5.318,0,0,0,0,10.637H314.5a5.318,5.318,0,1,0,0-10.637Z" transform="translate(-256 -335.99)"/>
          </g>
        </g>
        <g id="Group_43" data-name="Group 43" transform="translate(31.91 69.187)">
          <g id="Group_42" data-name="Group 42">
            <path id="Path_693" data-name="Path 693" class="cls-2" d="M101.318,175.99A5.32,5.32,0,0,0,96,181.308v53.183a5.318,5.318,0,0,0,10.637,0V181.308A5.32,5.32,0,0,0,101.318,175.99Z" transform="translate(-96 -175.99)"/>
          </g>
        </g>
        <g id="Group_45" data-name="Group 45" transform="translate(31.91 69.187)">
          <g id="Group_44" data-name="Group 44">
            <path id="Path_694" data-name="Path 694" class="cls-2" d="M117.273,175.99H101.318a5.318,5.318,0,0,0,0,10.637h15.955a10.637,10.637,0,0,1,0,21.273H101.318a5.318,5.318,0,0,0,0,10.637h15.955a21.273,21.273,0,0,0,0-42.547Z" transform="translate(-96 -175.99)"/>
          </g>
        </g>
        <g id="Group_47" data-name="Group 47" transform="translate(95.73 58.55)">
          <g id="Group_46" data-name="Group 46">
            <path id="Path_695" data-name="Path 695" class="cls-2" d="M314.592,143.99a26.592,26.592,0,1,0,26.592,26.592A26.622,26.622,0,0,0,314.592,143.99Zm0,42.547a15.955,15.955,0,1,1,15.955-15.955A15.974,15.974,0,0,1,314.592,186.537Z" transform="translate(-288 -143.99)"/>
          </g>
        </g>
        <g id="Group_49" data-name="Group 49" transform="translate(117.003 58.55)">
          <g id="Group_48" data-name="Group 48">
            <path id="Path_696" data-name="Path 696" class="cls-2" d="M378.592,165.263H362.637V149.308a5.318,5.318,0,1,0-10.637,0v21.273a5.32,5.32,0,0,0,5.318,5.318h21.273a5.318,5.318,0,1,0,0-10.637Z" transform="translate(-352 -143.99)"/>
          </g>
        </g>
      </g>
    </g>
  </g>
</svg>
