<svg xmlns="http://www.w3.org/2000/svg" xmlns:xlink="http://www.w3.org/1999/xlink" viewBox="0 0 360 460">
  <defs>
    <style>
      .cls-1 {
        clip-path: url(#clip-file_attachment_1);
      }

      .cls-2 {
        fill: #5b5b5b;
      }
    </style>
    <clipPath id="clip-file_attachment_1">
      <rect width="360" height="460"/>
    </clipPath>
  </defs>
  <g id="file_attachment_1" data-name="file_attachment – 1" class="cls-1">
    <g id="_034-file-33" data-name="034-file-33" transform="translate(6.086)">
      <path id="Path_422" data-name="Path 422" class="cls-2" d="M345.342,460H2.49a8.545,8.545,0,0,1-8.576-8.511V8.517A8.551,8.551,0,0,1,2.49,0H268.2a8.611,8.611,0,0,1,6.064,2.495L351.4,79.138a8.508,8.508,0,0,1,2.511,6.022V451.489A8.545,8.545,0,0,1,345.342,460ZM11.059,442.969H336.772V88.684L264.649,17.031H11.059Zm0,0"/>
      <path id="Path_423" data-name="Path 423" class="cls-2" d="M409.822,93.762H333.1a8.523,8.523,0,0,1-8.522-8.522V8.525A8.524,8.524,0,0,1,339.135,2.5l76.715,76.715a8.522,8.522,0,0,1-6.028,14.549Zm-68.19-17.047h47.613L341.632,29.1Zm0,0" transform="translate(-64.433 0)"/>
      <g id="text-height-adjustment" transform="translate(116.04 124.052)">
        <g id="Group_64" data-name="Group 64" transform="translate(0 36.089)">
          <path id="Path_704" data-name="Path 704" class="cls-2" d="M116.3,45.689v-9.51q-1.185-.09-2.548-.09l-3.822.09-.637.729a7.437,7.437,0,0,1-1.911,1.455,4.432,4.432,0,0,1-2.548.637l-3.095-.181H75.079l-19.566-.092-10.466.092-1.729.273H31.487q-17.383,0-19.2-.455L7.37,36.179l-7.37.1V71.129q1.092,1.547,5.1,4,.637,0,1.865-1.184a6.816,6.816,0,0,0,1.774-2.912q1-3,2.185-7.645t2-6.825a6.159,6.159,0,0,1,2-3q1.454-1,6.642-2.23a40.083,40.083,0,0,1,9.1-1.229,105.906,105.906,0,0,1,13.469.545,2.422,2.422,0,0,1,1.275.547,2.63,2.63,0,0,1,.546,1.365,41.848,41.848,0,0,1,.182,5.189q0,4.185-.046,9.328t.046,10.784l.454,38.95q.182,21.931-.546,39.4a16.876,16.876,0,0,1-1.092,5.1q-1.82,1.09-14.47,4.549-5.279,1.456-7.19,4.459v.818l.091,2.365c0,.244.062,1.032.182,2.367q2,0,6.37-.364,13.2-1.275,21.2-1.275,15.106,0,21.66.728a135.064,135.064,0,0,0,17.018.909q1.82,0,3.093-.091a18.191,18.191,0,0,0,.275-2.638q0-.455-.456-4.551a24.373,24.373,0,0,0-4.549-1.638q-1.365-.363-3.913-1.093t-4-1.185a12.659,12.659,0,0,0-1.638-.454,29.3,29.3,0,0,1-8.1-2.912,24.368,24.368,0,0,1-1-7.735l.092-13.379-.274-32.672V77.313L69.253,63.48A94.289,94.289,0,0,1,69.982,51.1a40.709,40.709,0,0,1,6.1-.455q3.914,0,10.1-.091t9.42-.092a22.1,22.1,0,0,1,3.868.182,5.272,5.272,0,0,1,2.455,1.73,10.691,10.691,0,0,1,.545,2.639q.365,2.458,1.048,5.96a46.664,46.664,0,0,0,1.411,5.689,68.173,68.173,0,0,0,4.913,11.649,24.874,24.874,0,0,0,6.189-1.639,23.549,23.549,0,0,0,.362-4.641l.091-5.279-.091-9.1Q116.3,45.688,116.3,45.689Z" transform="translate(0 -36.089)"/>
        </g>
      </g>
    </g>
  </g>
</svg>
